<svg xmlns="http://www.w3.org/2000/svg" xmlns:xlink="http://www.w3.org/1999/xlink" width="120" zoomAndPan="magnify" viewBox="0 0 90 30.000001" height="40" preserveAspectRatio="xMidYMid meet" version="1.0"><defs><g/><clipPath id="baf4d4cbae"><path d="M 1.453125 4 L 88.546875 4 L 88.546875 25 L 1.453125 25 Z M 1.453125 4 " clip-rule="nonzero"/></clipPath><clipPath id="8ae3cfb16b"><path d="M 104.636719 15.246094 L 103.40625 28.980469 L -23.105469 17.640625 L -21.871094 3.90625 Z M 104.636719 15.246094 " clip-rule="nonzero"/></clipPath><clipPath id="1c6694ae04"><path d="M 104.636719 15.246094 L 103.40625 28.980469 L -23.105469 17.640625 L -21.871094 3.90625 Z M 104.636719 15.246094 " clip-rule="nonzero"/></clipPath></defs><g fill="#000000" fill-opacity="1"><g transform="translate(3.636589, 17.525207)"><g><path d="M 6.546875 -4.84375 C 7.097656 -4.726562 7.539062 -4.457031 7.875 -4.03125 C 8.207031 -3.601562 8.375 -3.113281 8.375 -2.5625 C 8.375 -1.78125 8.097656 -1.15625 7.546875 -0.6875 C 6.992188 -0.226562 6.222656 0 5.234375 0 L 0.828125 0 L 0.828125 -9.4375 L 5.078125 -9.4375 C 6.046875 -9.4375 6.800781 -9.21875 7.34375 -8.78125 C 7.882812 -8.34375 8.15625 -7.75 8.15625 -7 C 8.15625 -6.4375 8.007812 -5.972656 7.71875 -5.609375 C 7.425781 -5.242188 7.035156 -4.988281 6.546875 -4.84375 Z M 3.140625 -5.625 L 4.640625 -5.625 C 5.015625 -5.625 5.300781 -5.707031 5.5 -5.875 C 5.707031 -6.039062 5.8125 -6.285156 5.8125 -6.609375 C 5.8125 -6.929688 5.707031 -7.175781 5.5 -7.34375 C 5.300781 -7.507812 5.015625 -7.59375 4.640625 -7.59375 L 3.140625 -7.59375 Z M 4.828125 -1.859375 C 5.210938 -1.859375 5.507812 -1.941406 5.71875 -2.109375 C 5.9375 -2.285156 6.046875 -2.539062 6.046875 -2.875 C 6.046875 -3.207031 5.929688 -3.46875 5.703125 -3.65625 C 5.484375 -3.84375 5.179688 -3.9375 4.796875 -3.9375 L 3.140625 -3.9375 L 3.140625 -1.859375 Z M 4.828125 -1.859375 "/></g></g></g><g fill="#000000" fill-opacity="1"><g transform="translate(12.500241, 17.525207)"><g><path d="M 3.09375 -9.4375 L 3.09375 -3.796875 C 3.09375 -3.234375 3.226562 -2.796875 3.5 -2.484375 C 3.78125 -2.179688 4.191406 -2.03125 4.734375 -2.03125 C 5.273438 -2.03125 5.6875 -2.179688 5.96875 -2.484375 C 6.257812 -2.796875 6.40625 -3.234375 6.40625 -3.796875 L 6.40625 -9.4375 L 8.703125 -9.4375 L 8.703125 -3.8125 C 8.703125 -2.96875 8.519531 -2.253906 8.15625 -1.671875 C 7.800781 -1.085938 7.320312 -0.644531 6.71875 -0.34375 C 6.113281 -0.0507812 5.4375 0.09375 4.6875 0.09375 C 3.945312 0.09375 3.28125 -0.0507812 2.6875 -0.34375 C 2.101562 -0.632812 1.640625 -1.070312 1.296875 -1.65625 C 0.960938 -2.25 0.796875 -2.96875 0.796875 -3.8125 L 0.796875 -9.4375 Z M 3.09375 -9.4375 "/></g></g></g><g fill="#000000" fill-opacity="1"><g transform="translate(21.982594, 17.525207)"><g><path d="M 8.9375 -9.4375 L 5.65625 -3.125 L 5.65625 0 L 3.359375 0 L 3.359375 -3.125 L 0.09375 -9.4375 L 2.703125 -9.4375 L 4.53125 -5.484375 L 6.34375 -9.4375 Z M 8.9375 -9.4375 "/></g></g></g><g fill="#000000" fill-opacity="1"><g transform="translate(31.007652, 17.525207)"><g><path d="M 3.140625 -7.59375 L 3.140625 -5.6875 L 6.21875 -5.6875 L 6.21875 -3.921875 L 3.140625 -3.921875 L 3.140625 -1.84375 L 6.625 -1.84375 L 6.625 0 L 0.828125 0 L 0.828125 -9.4375 L 6.625 -9.4375 L 6.625 -7.59375 Z M 3.140625 -7.59375 "/></g></g></g><g fill="#000000" fill-opacity="1"><g transform="translate(38.28419, 17.525207)"><g><path d="M 5.65625 0 L 3.6875 -3.5625 L 3.140625 -3.5625 L 3.140625 0 L 0.828125 0 L 0.828125 -9.4375 L 4.6875 -9.4375 C 5.4375 -9.4375 6.070312 -9.304688 6.59375 -9.046875 C 7.125 -8.785156 7.519531 -8.429688 7.78125 -7.984375 C 8.039062 -7.535156 8.171875 -7.03125 8.171875 -6.46875 C 8.171875 -5.84375 7.992188 -5.28125 7.640625 -4.78125 C 7.285156 -4.289062 6.757812 -3.941406 6.0625 -3.734375 L 8.25 0 Z M 3.140625 -5.1875 L 4.5625 -5.1875 C 4.976562 -5.1875 5.289062 -5.289062 5.5 -5.5 C 5.71875 -5.707031 5.828125 -6 5.828125 -6.375 C 5.828125 -6.738281 5.71875 -7.019531 5.5 -7.21875 C 5.289062 -7.425781 4.976562 -7.53125 4.5625 -7.53125 L 3.140625 -7.53125 Z M 3.140625 -5.1875 "/></g></g></g><g fill="#000000" fill-opacity="1"><g transform="translate(47.053694, 17.525207)"><g><path d="M 4.25 0.09375 C 3.5625 0.09375 2.941406 -0.015625 2.390625 -0.234375 C 1.847656 -0.460938 1.410156 -0.796875 1.078125 -1.234375 C 0.753906 -1.671875 0.582031 -2.203125 0.5625 -2.828125 L 3.015625 -2.828125 C 3.046875 -2.472656 3.164062 -2.203125 3.375 -2.015625 C 3.582031 -1.835938 3.851562 -1.75 4.1875 -1.75 C 4.519531 -1.75 4.785156 -1.828125 4.984375 -1.984375 C 5.179688 -2.140625 5.28125 -2.359375 5.28125 -2.640625 C 5.28125 -2.867188 5.203125 -3.054688 5.046875 -3.203125 C 4.890625 -3.359375 4.695312 -3.484375 4.46875 -3.578125 C 4.238281 -3.679688 3.914062 -3.796875 3.5 -3.921875 C 2.882812 -4.109375 2.382812 -4.296875 2 -4.484375 C 1.613281 -4.679688 1.28125 -4.960938 1 -5.328125 C 0.726562 -5.691406 0.59375 -6.171875 0.59375 -6.765625 C 0.59375 -7.640625 0.910156 -8.328125 1.546875 -8.828125 C 2.179688 -9.328125 3.007812 -9.578125 4.03125 -9.578125 C 5.070312 -9.578125 5.910156 -9.328125 6.546875 -8.828125 C 7.179688 -8.328125 7.523438 -7.632812 7.578125 -6.75 L 5.078125 -6.75 C 5.066406 -7.050781 4.957031 -7.289062 4.75 -7.46875 C 4.539062 -7.644531 4.273438 -7.734375 3.953125 -7.734375 C 3.671875 -7.734375 3.445312 -7.660156 3.28125 -7.515625 C 3.113281 -7.367188 3.03125 -7.15625 3.03125 -6.875 C 3.03125 -6.570312 3.171875 -6.332031 3.453125 -6.15625 C 3.742188 -5.988281 4.191406 -5.804688 4.796875 -5.609375 C 5.410156 -5.398438 5.90625 -5.203125 6.28125 -5.015625 C 6.664062 -4.828125 6.992188 -4.550781 7.265625 -4.1875 C 7.546875 -3.832031 7.6875 -3.375 7.6875 -2.8125 C 7.6875 -2.269531 7.550781 -1.78125 7.28125 -1.34375 C 7.007812 -0.90625 6.613281 -0.554688 6.09375 -0.296875 C 5.570312 -0.0351562 4.957031 0.09375 4.25 0.09375 Z M 4.25 0.09375 "/></g></g></g><g fill="#000000" fill-opacity="1"><g transform="translate(55.325535, 17.525207)"><g/></g></g><g fill="#ffa500" fill-opacity="1"><g transform="translate(58.174139, 17.525207)"><g><path d="M 9.015625 -9.4375 L 9.015625 0 L 6.71875 0 L 6.71875 -3.890625 L 3.140625 -3.890625 L 3.140625 0 L 0.828125 0 L 0.828125 -9.4375 L 3.140625 -9.4375 L 3.140625 -5.75 L 6.71875 -5.75 L 6.71875 -9.4375 Z M 9.015625 -9.4375 "/></g></g></g><g fill="#ffa500" fill-opacity="1"><g transform="translate(68.006205, 17.525207)"><g><path d="M 3.09375 -9.4375 L 3.09375 -3.796875 C 3.09375 -3.234375 3.226562 -2.796875 3.5 -2.484375 C 3.78125 -2.179688 4.191406 -2.03125 4.734375 -2.03125 C 5.273438 -2.03125 5.6875 -2.179688 5.96875 -2.484375 C 6.257812 -2.796875 6.40625 -3.234375 6.40625 -3.796875 L 6.40625 -9.4375 L 8.703125 -9.4375 L 8.703125 -3.8125 C 8.703125 -2.96875 8.519531 -2.253906 8.15625 -1.671875 C 7.800781 -1.085938 7.320312 -0.644531 6.71875 -0.34375 C 6.113281 -0.0507812 5.4375 0.09375 4.6875 0.09375 C 3.945312 0.09375 3.28125 -0.0507812 2.6875 -0.34375 C 2.101562 -0.632812 1.640625 -1.070312 1.296875 -1.65625 C 0.960938 -2.25 0.796875 -2.96875 0.796875 -3.8125 L 0.796875 -9.4375 Z M 3.09375 -9.4375 "/></g></g></g><g fill="#ffa500" fill-opacity="1"><g transform="translate(77.488558, 17.525207)"><g><path d="M 6.546875 -4.84375 C 7.097656 -4.726562 7.539062 -4.457031 7.875 -4.03125 C 8.207031 -3.601562 8.375 -3.113281 8.375 -2.5625 C 8.375 -1.78125 8.097656 -1.15625 7.546875 -0.6875 C 6.992188 -0.226562 6.222656 0 5.234375 0 L 0.828125 0 L 0.828125 -9.4375 L 5.078125 -9.4375 C 6.046875 -9.4375 6.800781 -9.21875 7.34375 -8.78125 C 7.882812 -8.34375 8.15625 -7.75 8.15625 -7 C 8.15625 -6.4375 8.007812 -5.972656 7.71875 -5.609375 C 7.425781 -5.242188 7.035156 -4.988281 6.546875 -4.84375 Z M 3.140625 -5.625 L 4.640625 -5.625 C 5.015625 -5.625 5.300781 -5.707031 5.5 -5.875 C 5.707031 -6.039062 5.8125 -6.285156 5.8125 -6.609375 C 5.8125 -6.929688 5.707031 -7.175781 5.5 -7.34375 C 5.300781 -7.507812 5.015625 -7.59375 4.640625 -7.59375 L 3.140625 -7.59375 Z M 4.828125 -1.859375 C 5.210938 -1.859375 5.507812 -1.941406 5.71875 -2.109375 C 5.9375 -2.285156 6.046875 -2.539062 6.046875 -2.875 C 6.046875 -3.207031 5.929688 -3.46875 5.703125 -3.65625 C 5.484375 -3.84375 5.179688 -3.9375 4.796875 -3.9375 L 3.140625 -3.9375 L 3.140625 -1.859375 Z M 4.828125 -1.859375 "/></g></g></g><g clip-path="url(#baf4d4cbae)"><g clip-path="url(#8ae3cfb16b)"><g clip-path="url(#1c6694ae04)"><path fill="#ffa500" d="M 14.597656 20.808594 C 6.914062 20.316406 -0.539062 18.738281 -7.601562 15.578125 C -10.867188 14.113281 -14.007812 12.410156 -16.851562 10.207031 C -18.6875 8.777344 -20.140625 6.992188 -21.605469 5.214844 C -21.78125 5.03125 -21.890625 4.8125 -21.921875 4.558594 C -21.925781 4.464844 -21.910156 4.378906 -21.867188 4.292969 C -21.824219 4.210938 -21.761719 4.140625 -21.683594 4.089844 C -21.605469 4.039062 -21.519531 4.011719 -21.425781 4.003906 C -21.332031 4 -21.242188 4.019531 -21.160156 4.0625 C -20.949219 4.195312 -20.777344 4.367188 -20.636719 4.574219 C -17.273438 9.171875 -12.585938 12.003906 -7.527344 14.316406 C -1.757812 16.949219 4.3125 18.492188 10.601562 19.246094 C 17.1875 20.042969 23.800781 20.121094 30.421875 20.191406 C 36.722656 20.257812 42.984375 19.707031 49.261719 19.363281 C 56.855469 18.9375 64.453125 18.726562 72.058594 19.019531 C 75.097656 19.144531 78.140625 19.199219 81.179688 19.328125 C 85.21875 19.5 89.195312 20.089844 93.15625 20.84375 C 95.292969 21.261719 97.476562 21.390625 99.585938 21.992188 C 100.902344 22.363281 102.089844 23.019531 103.347656 23.515625 C 103.644531 23.628906 103.855469 23.84375 103.753906 24.179688 C 103.640625 24.566406 103.3125 24.644531 102.960938 24.578125 C 102.714844 24.539062 102.480469 24.464844 102.261719 24.351562 C 99.976562 23.101562 97.460938 22.703125 94.941406 22.316406 C 92.625 21.960938 90.324219 21.511719 87.996094 21.179688 C 82.980469 20.453125 77.917969 20.421875 72.863281 20.226562 C 62.375 19.824219 51.910156 20.300781 41.453125 21.0625 C 36.488281 21.425781 31.515625 21.390625 26.542969 21.351562 C 22.558594 21.328125 18.574219 21.234375 14.597656 20.808594 Z M 14.597656 20.808594 " fill-opacity="1" fill-rule="nonzero"/></g></g></g></svg>